<svg xmlns="http://www.w3.org/2000/svg" width="980" height="560" viewBox="0 0 980 560" role="img" aria-labelledby="title desc">
  <title id="title">资金曲线</title>
  <desc id="desc">2026-06-20 至 2026-07-02 总资产从 512740.22 元下降到 502422.70 元，纵坐标从 500000 元开始。</desc>
  <rect width="980" height="560" fill="#ffffff"/>
  <text x="56" y="52" font-family="Arial, 'PingFang SC', 'Microsoft YaHei', sans-serif" font-size="28" font-weight="700" fill="#202124">资金曲线</text>
  <text x="56" y="82" font-family="Arial, 'PingFang SC', 'Microsoft YaHei', sans-serif" font-size="14" fill="#6b7280">单位：人民币元 ｜ 数据来源：equity_curve.csv</text>

  <line x1="92" y1="448" x2="912" y2="448" stroke="#d1d5db" stroke-width="1"/>
  <line x1="92" y1="116" x2="92" y2="448" stroke="#d1d5db" stroke-width="1"/>

  <line x1="92" y1="365" x2="912" y2="365" stroke="#eef2f7" stroke-width="1"/>
  <line x1="92" y1="282" x2="912" y2="282" stroke="#eef2f7" stroke-width="1"/>
  <line x1="92" y1="199" x2="912" y2="199" stroke="#eef2f7" stroke-width="1"/>
  <line x1="92" y1="116" x2="912" y2="116" stroke="#eef2f7" stroke-width="1"/>

  <text x="28" y="453" font-family="Arial, 'PingFang SC', 'Microsoft YaHei', sans-serif" font-size="12" fill="#6b7280">50.0万</text>
  <text x="28" y="370" font-family="Arial, 'PingFang SC', 'Microsoft YaHei', sans-serif" font-size="12" fill="#6b7280">51.0万</text>
  <text x="28" y="287" font-family="Arial, 'PingFang SC', 'Microsoft YaHei', sans-serif" font-size="12" fill="#6b7280">52.0万</text>
  <text x="28" y="204" font-family="Arial, 'PingFang SC', 'Microsoft YaHei', sans-serif" font-size="12" fill="#6b7280">53.0万</text>
  <text x="28" y="121" font-family="Arial, 'PingFang SC', 'Microsoft YaHei', sans-serif" font-size="12" fill="#6b7280">54.0万</text>

  <polyline points="110,342 195,198 280,241 365,198 450,204 535,176 620,166 705,143 790,187 875,428" fill="none" stroke="#ef4444" stroke-width="4" stroke-linecap="round" stroke-linejoin="round"/>
  <circle cx="110" cy="342" r="7" fill="#ef4444"/>
  <circle cx="110" cy="342" r="13" fill="#ef4444" opacity="0.14"/>
  <circle cx="195" cy="198" r="7" fill="#ef4444"/>
  <circle cx="195" cy="198" r="13" fill="#ef4444" opacity="0.14"/>
  <circle cx="280" cy="241" r="7" fill="#ef4444"/>
  <circle cx="280" cy="241" r="13" fill="#ef4444" opacity="0.14"/>
  <circle cx="365" cy="198" r="7" fill="#ef4444"/>
  <circle cx="365" cy="198" r="13" fill="#ef4444" opacity="0.14"/>
  <circle cx="450" cy="204" r="7" fill="#ef4444"/>
  <circle cx="450" cy="204" r="13" fill="#ef4444" opacity="0.14"/>
  <circle cx="535" cy="176" r="7" fill="#ef4444"/>
  <circle cx="535" cy="176" r="13" fill="#ef4444" opacity="0.14"/>
  <circle cx="620" cy="166" r="7" fill="#ef4444"/>
  <circle cx="620" cy="166" r="13" fill="#ef4444" opacity="0.14"/>
  <circle cx="705" cy="143" r="7" fill="#ef4444"/>
  <circle cx="705" cy="143" r="13" fill="#ef4444" opacity="0.14"/>
  <circle cx="790" cy="187" r="7" fill="#6b7280"/>
  <circle cx="790" cy="187" r="13" fill="#6b7280" opacity="0.14"/>
  <circle cx="875" cy="428" r="7" fill="#2563eb"/>
  <circle cx="875" cy="428" r="13" fill="#2563eb" opacity="0.14"/>

  <text x="68" y="484" font-family="Arial, 'PingFang SC', 'Microsoft YaHei', sans-serif" font-size="11" fill="#374151">06-20</text>
  <text x="184" y="484" font-family="Arial, 'PingFang SC', 'Microsoft YaHei', sans-serif" font-size="11" fill="#374151">06-22</text>
  <text x="279" y="484" font-family="Arial, 'PingFang SC', 'Microsoft YaHei', sans-serif" font-size="11" fill="#374151">06-23</text>
  <text x="374" y="484" font-family="Arial, 'PingFang SC', 'Microsoft YaHei', sans-serif" font-size="11" fill="#374151">06-24</text>
  <text x="469" y="484" font-family="Arial, 'PingFang SC', 'Microsoft YaHei', sans-serif" font-size="11" fill="#374151">06-25</text>
  <text x="564" y="484" font-family="Arial, 'PingFang SC', 'Microsoft YaHei', sans-serif" font-size="11" fill="#374151">06-26</text>
  <text x="659" y="484" font-family="Arial, 'PingFang SC', 'Microsoft YaHei', sans-serif" font-size="11" fill="#374151">06-29</text>
  <text x="754" y="484" font-family="Arial, 'PingFang SC', 'Microsoft YaHei', sans-serif" font-size="11" fill="#374151">06-30</text>
  <text x="849" y="484" font-family="Arial, 'PingFang SC', 'Microsoft YaHei', sans-serif" font-size="11" fill="#374151">07-01</text>
  <text x="850" y="506" font-family="Arial, 'PingFang SC', 'Microsoft YaHei', sans-serif" font-size="11" fill="#374151">07-02</text>
  <text x="98" y="337" font-family="Arial, 'PingFang SC', 'Microsoft YaHei', sans-serif" font-size="12" font-weight="700" fill="#ef4444">512,740.22</text>
  <text x="237" y="193" font-family="Arial, 'PingFang SC', 'Microsoft YaHei', sans-serif" font-size="12" font-weight="700" fill="#ef4444">530,089.14</text>
  <text x="332" y="236" font-family="Arial, 'PingFang SC', 'Microsoft YaHei', sans-serif" font-size="12" font-weight="700" fill="#6b7280">524,977.06</text>
  <text x="427" y="193" font-family="Arial, 'PingFang SC', 'Microsoft YaHei', sans-serif" font-size="12" font-weight="700" fill="#ef4444">530,115.68</text>
  <text x="522" y="199" font-family="Arial, 'PingFang SC', 'Microsoft YaHei', sans-serif" font-size="12" font-weight="700" fill="#ef4444">529,407.14</text>
  <text x="617" y="171" font-family="Arial, 'PingFang SC', 'Microsoft YaHei', sans-serif" font-size="12" font-weight="700" fill="#ef4444">532,819.72</text>
  <text x="596" y="193" font-family="Arial, 'PingFang SC', 'Microsoft YaHei', sans-serif" font-size="12" fill="#6b7280">低仓位新高</text>
  <text x="625" y="142" font-family="Arial, 'PingFang SC', 'Microsoft YaHei', sans-serif" font-size="12" font-weight="700" fill="#ef4444">534,035.44</text>
  <text x="666" y="184" font-family="Arial, 'PingFang SC', 'Microsoft YaHei', sans-serif" font-size="12" fill="#6b7280">小仓试错</text>
  <text x="760" y="120" font-family="Arial, 'PingFang SC', 'Microsoft YaHei', sans-serif" font-size="14" font-weight="700" fill="#ef4444">536,701.82</text>
  <text x="792" y="162" font-family="Arial, 'PingFang SC', 'Microsoft YaHei', sans-serif" font-size="12" fill="#6b7280">6月收官新高</text>
  <text x="730" y="213" font-family="Arial, 'PingFang SC', 'Microsoft YaHei', sans-serif" font-size="14" font-weight="700" fill="#6b7280">531,500.49</text>
  <text x="730" y="235" font-family="Arial, 'PingFang SC', 'Microsoft YaHei', sans-serif" font-size="12" fill="#6b7280">7月首日回撤</text>
  <text x="760" y="425" font-family="Arial, 'PingFang SC', 'Microsoft YaHei', sans-serif" font-size="14" font-weight="700" fill="#2563eb">502,422.70</text>
  <text x="760" y="447" font-family="Arial, 'PingFang SC', 'Microsoft YaHei', sans-serif" font-size="12" fill="#6b7280">科创杀跌满仓回撤</text>

  <rect x="704" y="34" width="214" height="76" rx="8" fill="#fff7f7" stroke="#fecaca"/>
  <text x="724" y="62" font-family="Arial, 'PingFang SC', 'Microsoft YaHei', sans-serif" font-size="13" fill="#6b7280">当前记录</text>
  <text x="724" y="88" font-family="Arial, 'PingFang SC', 'Microsoft YaHei', sans-serif" font-size="22" font-weight="700" fill="#2563eb">502,422.70</text>

  <text x="92" y="524" font-family="Arial, 'PingFang SC', 'Microsoft YaHei', sans-serif" font-size="12" fill="#9ca3af">说明：当前纵坐标从 50 万到 54 万，2026-07-02 券商仓位 99.7%，基本为股票满仓风险敞口。</text>
</svg>
